<?xml version="1.0" standalone="no"?><!DOCTYPE svg PUBLIC "-//W3C//DTD SVG 1.1//EN" "http://www.w3.org/Graphics/SVG/1.1/DTD/svg11.dtd"><svg class="icon" width="99px" height="99.00px" viewBox="0 0 1024 1024" version="1.1" xmlns="http://www.w3.org/2000/svg"><path d="M512 117.333333a394.666667 394.666667 0 1 0 0 789.333334 394.666667 394.666667 0 0 0 0-789.333334zM53.333333 512C53.333333 258.688 258.688 53.333333 512 53.333333S970.666667 258.688 970.666667 512 765.312 970.666667 512 970.666667 53.333333 765.312 53.333333 512z"  /><path d="M574.72 276.053333a32 32 0 0 1 45.226667 0l85.333333 85.333334a32 32 0 0 1 0 45.226666l-85.333333 85.333334a32 32 0 1 1-45.226667-45.226667l30.72-30.72H469.333333a96 96 0 0 0 0 192h213.333334a32 32 0 0 1 0 64h-213.333334a160 160 0 1 1 0-320h136.106667l-30.72-30.72a32 32 0 0 1 0-45.226667z"  /></svg>