<?xml version="1.0" standalone="no"?><!DOCTYPE svg PUBLIC "-//W3C//DTD SVG 1.1//EN" "http://www.w3.org/Graphics/SVG/1.1/DTD/svg11.dtd"><svg class="icon" width="99px" height="99.00px" viewBox="0 0 1024 1024" version="1.1" xmlns="http://www.w3.org/2000/svg"><path d="M512.471233 63.426565c-247.114121 0-447.270766 200.255906-447.270766 447.240067 0 247.044536 200.156646 447.301466 447.270766 447.301466C759.45437 957.969121 959.7113 757.711168 959.7113 510.666632 959.7113 263.682471 759.45437 63.426565 512.471233 63.426565zM512.471233 883.231953c-205.753107 0-372.567367-166.748768-372.567367-372.565321 0-205.689662 166.81426-372.503922 372.567367-372.503922 205.688639 0 372.503922 166.81426 372.503922 372.503922C884.974132 716.483184 718.159872 883.231953 512.471233 883.231953z"  /><path d="M303.052642 508.243443l161.51558-133.503597c0 0 19.108197-20.222577 19.108197 1.63729 0 22.119787 0 75.259054 0 75.259054s12.95915 0 32.720216 0c56.838519 0 160.206772 0 202.254424 0 0 0 11.352559-3.074012 11.352559 14.332427 0 17.407462 0 93.64889 0 105.9521 0 12.500709-9.488095 12.173251-9.488095 12.173251-40.903595 0-147.771555 0-202.612581 0-17.86795 0-34.390251 0-34.390251 0s0 42.668799 0 69.435419c0 26.831089-19.009959 3.599991-19.009959 3.599991S317.549821 546.594913 301.711088 530.755156C290.227546 519.172353 303.052642 508.243443 303.052642 508.243443z"  /></svg>