<?xml version="1.0" standalone="no"?><!DOCTYPE svg PUBLIC "-//W3C//DTD SVG 1.1//EN" "http://www.w3.org/Graphics/SVG/1.1/DTD/svg11.dtd"><svg class="icon" width="99px" height="99.00px" viewBox="0 0 1024 1024" version="1.1" xmlns="http://www.w3.org/2000/svg"><path d="M736 544c0 70.570667-57.429333 128-128 128H384a32 32 0 0 1 0-64h224c35.285333 0 64-28.714667 64-64s-28.714667-64-64-64H397.269333l9.386667 9.386667a32 32 0 0 1-45.226667 45.269333l-64-64a31.914667 31.914667 0 0 1-6.912-34.858667 32 32 0 0 1 6.912-10.410666l64-64a32 32 0 1 1 45.269334 45.269333l-9.386667 9.386667h210.730667a128.085333 128.085333 0 0 1 127.957333 127.957333z m234.666667-32c0 252.928-205.738667 458.666667-458.666667 458.666667S53.333333 764.928 53.333333 512 259.072 53.333333 512 53.333333 970.666667 259.072 970.666667 512z m-64 0c0-217.642667-177.024-394.666667-394.666667-394.666667S117.333333 294.357333 117.333333 512s177.024 394.666667 394.666667 394.666667 394.666667-177.024 394.666667-394.666667z" fill="#25314C" /></svg>