<?xml version="1.0" standalone="no"?><!DOCTYPE svg PUBLIC "-//W3C//DTD SVG 1.1//EN" "http://www.w3.org/Graphics/SVG/1.1/DTD/svg11.dtd"><svg class="icon" width="99px" height="92.92px" viewBox="0 0 1091 1024" version="1.1" xmlns="http://www.w3.org/2000/svg"><path d="M299.821947 963.832067q16.217356 0 29.829154-8.760067 13.611798-8.804991 33.33318-26.325127l151.39194-134.680426h281.624947q65.363582 0 110.107313-23.494951 44.743731-23.450027 67.789447-68.193758 23.000793-44.743731 23.000793-109.253768v-336.027213q0-64.510037-23.000793-109.253768-23.045717-44.743731-67.789447-68.238681-44.743731-23.450027-110.107313-23.450028H230.954338q-65.363582 0-110.152237 23.450028-44.743731 23.494951-67.744524 68.238681Q30.011861 192.58672 30.011861 257.096757v336.027213q0 64.510037 23.045716 109.253768 23.000793 44.743731 67.744524 68.193758 44.788654 23.494951 110.152237 23.494951h21.024162v114.060574q0 25.426658 12.533635 40.565852 12.488712 15.139194 35.309812 15.139194z m17.96937-80.278159v-127.223137q0-17.96937-7.457289-25.426658-7.457288-7.457288-25.426658-7.457289H230.954338q-66.711285 0-98.51707-33.153487-31.805784-33.108564-31.805784-97.618601v-335.577979q0-64.060803 31.805784-97.169367 31.805784-33.153487 98.51707-33.153487H795.956244q66.217127 0 98.247529 33.153487 32.030401 33.108564 32.030402 97.169367v335.577979q0 64.510037-32.030402 97.618601-32.030401 33.153487-98.247529 33.153487h-284.275428q-18.418604 0-29.829154 3.908338-11.41055 3.953261-23.719568 16.711514z m102.425407-292.496415l93.710263-68.373452 93.350876 68.373452q13.746568 10.152694 25.516505 2.515712 11.769937-7.592059 5.974815-25.291888l-36.567667-109.613155 95.552123-69.13715q9.748383-6.873284 10.646852-15.363811 0.898468-8.535451-4.896654-14.82473-5.750198-6.334203-16.981054-6.334203H568.194483l-35.04027-108.939304q-5.12127-16.26228-19.40692-16.082586-14.285649 0.179694-19.317072 16.082586l-35.130118 108.939304H340.65734q-11.230856 0-17.025978 6.289279-5.795122 6.334203-4.896653 14.82473 0.898468 8.535451 10.691775 15.408735l96.225974 69.092226-36.882131 109.613155q-6.154509 17.744753 5.795122 25.336812 11.904707 7.636982 25.651275-2.515712z" fill="#dbdbdb" fill-opacity="0.85" /></svg>