<?xml version="1.0" standalone="no"?><!DOCTYPE svg PUBLIC "-//W3C//DTD SVG 1.1//EN" "http://www.w3.org/Graphics/SVG/1.1/DTD/svg11.dtd"><svg class="icon" width="99px" height="99.00px" viewBox="0 0 1024 1024" version="1.1" xmlns="http://www.w3.org/2000/svg"><path d="M705.555664 512.998617h-125.676126a70.299094 70.299094 0 0 0-50.291567-50.291567V284.240615a17.596769 17.596769 0 1 0-35.193539 0v178.466435c-30.266443 7.865756-52.790308 35.175942-52.790308 67.888336 0 38.818473 31.568604 70.387077 70.387078 70.387077 32.694797 0 60.02258-22.523865 67.888336-52.790308h125.676126a17.596769 17.596769 0 1 0 0-35.193538z m-193.564462 52.790308c-19.409237 0-35.193539-15.784302-35.193539-35.193539s15.784302-35.193539 35.193539-35.193539 35.193539 15.784302 35.193538 35.193539-15.784302 35.193539-35.193538 35.193539z"  /><path d="M883.494196 171.814856l72.076367 72.076367a17.596769 17.596769 0 0 0 24.881832 0c55.728969-55.711372 55.728969-146.387524 0-202.098896s-146.387524-55.711372-202.098896 0a17.543979 17.543979 0 0 0 0 24.881832l80.258865 80.258865-29.896911 29.896911c-84.112557-75.38456-195.130575-121.347321-316.706655-121.347321s-232.594097 45.962762-316.706654 121.347321l-29.914508-29.896911 80.258865-80.258865a17.543979 17.543979 0 0 0 0-24.881832c-55.711372-55.711372-146.369927-55.711372-202.098896 0s-55.728969 146.387524 0 202.098896a17.596769 17.596769 0 0 0 24.881832 0l72.076367-72.076367 29.492185 29.492185c-82.335284 85.467509-133.11956 201.535799-133.11956 329.288345 0 174.172823 94.265893 326.666426 234.406565 409.388839l-53.283018 53.283017a17.579173 17.579173 0 1 0 24.881832 24.881832l60.708854-60.708854c62.961241 30.864733 133.682657 48.267938 208.39854 48.267938s145.437299-17.403205 208.398539-48.267938l60.708854 60.708854a17.543979 17.543979 0 0 0 24.881832 0 17.579173 17.579173 0 0 0 0-24.881832l-53.283018-53.283017c140.140671-82.722413 234.406564-235.216016 234.406565-409.388839 0-127.752545-50.784276-243.820836-133.11956-329.288345l29.509782-29.492185z m72.05877-105.140697c37.762667 37.762667 41.563569 96.817425 11.420304 138.8913L816.679263 55.253856a107.868196 107.868196 0 0 1 138.873703 11.420303zM57.009133 205.547863c-30.143266-42.056279-26.342364-101.111037 11.420304-138.873704s96.817425-41.545972 138.873703-11.420303L57.009133 205.547863z m454.982069 764.966757c-242.571465 0-439.919234-197.347768-439.919234-439.919234s197.347768-439.919234 439.919234-439.919234 439.919234 197.347768 439.919233 439.919234-197.330171 439.919234-439.919233 439.919234z"  /><path d="M511.991202 176.53079a17.596769 17.596769 0 0 0 17.596769-17.596769v-17.59677a17.596769 17.596769 0 1 0-35.193539 0v17.59677a17.596769 17.596769 0 0 0 17.59677 17.596769zM511.991202 880.401564a17.596769 17.596769 0 0 0-17.59677 17.596769v17.596769a17.596769 17.596769 0 1 0 35.193539 0v-17.596769a17.596769 17.596769 0 0 0-17.596769-17.596769zM881.523358 546.062946h17.596769a17.596769 17.596769 0 1 0 0-35.193538h-17.596769a17.596769 17.596769 0 1 0 0 35.193538zM142.459045 510.869408h-17.596769a17.596769 17.596769 0 1 0 0 35.193538h17.596769a17.596769 17.596769 0 1 0 0-35.193538zM773.303226 242.27232l-12.440916 12.440916a17.579173 17.579173 0 1 0 24.881832 24.881832l12.440916-12.440916a17.579173 17.579173 0 1 0-24.881832-24.881832zM238.255858 777.319689l-12.440916 12.440916a17.579173 17.579173 0 1 0 24.881832 24.881832l12.440916-12.440916a17.579173 17.579173 0 1 0-24.881832-24.881832zM785.744142 777.319689a17.579173 17.579173 0 1 0-24.881832 24.881832l12.440916 12.440916a17.543979 17.543979 0 0 0 24.881832 0 17.579173 17.579173 0 0 0 0-24.881832l-12.440916-12.440916zM250.696774 242.27232a17.579173 17.579173 0 1 0-24.881832 24.881832l12.440916 12.440916a17.543979 17.543979 0 0 0 24.881832 0 17.579173 17.579173 0 0 0 0-24.881832l-12.440916-12.440916z"  /></svg>