<?xml version="1.0" standalone="no"?><!DOCTYPE svg PUBLIC "-//W3C//DTD SVGt 1.1//EN" "http://www.w3.org/Graphics/SVG/1.1/DTD/svg11.dtd"><svg class="icon" width="99px" height="99.00px" viewBox="0 0 1024 1024" version="1.1" xmlns="http://www.w3.org/2000/svg"><path d="M512 998.4C243.776 998.4 25.6 780.224 25.6 512S243.776 25.6 512 25.6s486.4 218.176 486.4 486.4-218.176 486.4-486.4 486.4zM512 76.8C272 76.8 76.8 272 76.8 512s195.2 435.2 435.2 435.2 435.2-195.2 435.2-435.2S752 76.8 512 76.8z" fill="#ffffff" /><path d="M512 810.624a25.6 25.6 0 0 1-25.6-25.6v-384a25.6 25.6 0 1 1 51.2 0v384a25.6 25.6 0 0 1-25.6 25.6zM512 276.48a32 32 0 0 1-22.528-54.528 32.64 32.64 0 0 1 45.056 0A31.744 31.744 0 0 1 512 276.48z" fill="#ffffff" /></svg>