<?xml version="1.0" standalone="no"?><!DOCTYPE svg PUBLIC "-//W3C//DTD SVG 1.1//EN" "http://www.w3.org/Graphics/SVG/1.1/DTD/svg11.dtd"><svg class="icon" width="99px" height="99.00px" viewBox="0 0 1024 1024" version="1.1" xmlns="http://www.w3.org/2000/svg"><path d="M756 220a24 24 0 0 1-24-24v-2.928c-0.48-3.552-2.648-15.968-5.808-31.744l-3.456-17.232c-1.2-5.992-8.64-12.096-14.744-12.096h-464c-6.104 0-13.536 6.104-14.744 12.088l-3.456 17.248c-3.16 15.768-5.328 28.176-5.808 31.736v2.928a24 24 0 1 1-48 0V192c0-1.584 0-6.4 6.744-40.088l3.456-17.248c5.68-28.408 32.832-50.664 61.808-50.664h464c28.976 0 56.128 22.256 61.808 50.672l3.456 17.232c6.744 33.688 6.744 38.512 6.744 40.096v4a24 24 0 0 1-24 24z"  /><path d="M756 500.008a24 24 0 0 1-24-24v-280a24 24 0 1 1 48 0v280a24 24 0 0 1-24 24zM756 612a24 24 0 0 0-24 24v224c0 4.336-3.664 8-8 8h-496c-4.336 0-8-3.664-8-8v-104c0-11.896-3.76-22.92-10.112-32H180c-17.6 0-32-10.8-32-24s14.4-24 32-24h29.888a55.648 55.648 0 0 0 10.112-32v-48c0-11.896-3.76-22.92-10.112-32H180c-17.6 0-32-10.8-32-24s14.4-24 32-24h29.888a55.648 55.648 0 0 0 10.112-32v-48c0-12-2.864-22.976-7.728-32H180c-17.6 0-32-10.8-32-24s14.4-24 32-24h32.272c4.864-9.024 7.728-20 7.728-32v-128a24 24 0 1 0-48 0v128c0 3.84-0.776 6.648-1.48 8.368-21.688 2.952-38.52 23.184-38.52 47.632s16.832 44.68 38.52 47.632c0.704 1.72 1.48 4.528 1.48 8.368v48c0 4.336-3.664 8-8 8-30.872 0-56 21.528-56 48s25.128 48 56 48c4.336 0 8 3.664 8 8v48c0 4.336-3.664 8-8 8-30.872 0-56 21.528-56 48s25.128 48 56 48c4.336 0 8 3.664 8 8v104c0 30.88 25.128 56 56 56h496c30.872 0 56-25.12 56-56v-224a24 24 0 0 0-24-24z"  /><path d="M618.8 764.632a23.992 23.992 0 0 1-23.84-26.728l10.016-87.432c0.48-4.184 2.056-8.168 4.56-11.56l221.336-298.72a40.168 40.168 0 0 1 32.152-16.192 39.68 39.68 0 0 1 23.8 7.864l45 33.344c8.584 6.36 14.168 15.68 15.744 26.248s-1.064 21.12-7.424 29.696L718.808 719.88a23.952 23.952 0 0 1-9.728 7.728l-80.728 35.04c-3.064 1.328-6.32 1.984-9.552 1.984z m33.12-102.312l-4.544 39.744 36.696-15.928 212.744-287.128-32.144-23.816L651.92 662.32z"  /><path d="M704.88 684.928l-64.288-47.624 10.464-14.112 64.28 47.624zM620 308v104h-208v-104h208m32-32h-272v168h272v-168zM252 356c17.6 0 32 10.8 32 24s-14.4 24-32 24h-72c-17.6 0-32-10.8-32-24s14.4-24 32-24h72m0-32h-72c-35.888 0-64 24.6-64 56s28.112 56 64 56h72c35.888 0 64-24.6 64-56s-28.112-56-64-56zM252 516c17.6 0 32 10.8 32 24s-14.4 24-32 24h-72c-17.6 0-32-10.8-32-24s14.4-24 32-24h72m0-32h-72c-35.888 0-64 24.6-64 56s28.112 56 64 56h72c35.888 0 64-24.6 64-56s-28.112-56-64-56zM252 676c17.6 0 32 10.8 32 24s-14.4 24-32 24h-72c-17.6 0-32-10.8-32-24s14.4-24 32-24h72m0-32h-72c-35.888 0-64 24.6-64 56s28.112 56 64 56h72c35.888 0 64-24.6 64-56s-28.112-56-64-56z"  /><path d="M380 476h216v32h-216z"  /><path d="M380 532h144v32h-144z"  /><path d="M756 228h-552a16 16 0 0 1 0-32h552a16 16 0 0 1 0 32z"  /><path d="M756 180h-552a16 16 0 0 1 0-32h552a16 16 0 0 1 0 32z"  /></svg>