<?xml version="1.0" standalone="no"?><!DOCTYPE svg PUBLIC "-//W3C//DTD SVG 1.1//EN" "http://www.w3.org/Graphics/SVG/1.1/DTD/svg11.dtd"><svg class="icon" width="99px" height="99.00px" viewBox="0 0 1024 1024" version="1.1" xmlns="http://www.w3.org/2000/svg"><path d="M705.834667 805.546667c84.352 67.498667 149.76 70.442667 206.805333-9.429334a32 32 0 1 1 52.053333 37.205334c-82.048 114.901333-189.013333 110.037333-299.093333 21.973333-82.645333-67.584-138.666667-64.981333-181.546667-23.552a117.589333 117.589333 0 0 0-22.442666 28.885333 32 32 0 1 1-57.258667-28.586666c6.186667-12.373333 17.706667-29.354667 35.242667-46.293334 66.090667-63.914667 158.634667-68.266667 266.24 19.797334z m68.352-629.034667l2.048 2.048 23.125333 24.192a117.333333 117.333333 0 0 1-2.986667 165.290667L304.042667 846.336a32 32 0 0 1-12.885334 7.594667L85.76 917.162667a32 32 0 0 1-39.424-41.685334l75.861333-205.44a32 32 0 0 1 7.338667-11.477333L608.256 176.981333a117.333333 117.333333 0 0 1 165.973333-0.469333zM169.429333 726.698667l-40.661333 110.250666 115.370667-35.541333-74.666667-74.666667zM653.653333 222.122667L205.781333 672.512l91.306667 91.306667L751.786667 322.133333a53.333333 53.333333 0 0 0 1.365333-75.093333l-23.168-24.192-0.896-0.938667a53.333333 53.333333 0 0 0-75.434667 0.213334z" fill="#dbdbdb" /></svg>