<?xml version="1.0" standalone="no"?><!DOCTYPE svg PUBLIC "-//W3C//DTD SVG 1.1//EN" "http://www.w3.org/Graphics/SVG/1.1/DTD/svg11.dtd"><svg class="icon" width="99px" height="99.00px" viewBox="0 0 1024 1024" version="1.1" xmlns="http://www.w3.org/2000/svg"><path d="M512 85.333333c235.648 0 426.666667 191.018667 426.666667 426.666667a425.685333 425.685333 0 0 1-146.816 322.090667l-8.448 7.125333A424.96 424.96 0 0 1 512 938.666667a425.002667 425.002667 0 0 1-279.850667-104.576A425.685333 425.685333 0 0 1 85.333333 512C85.333333 276.352 276.352 85.333333 512 85.333333z m0 618.666667a234.538667 234.538667 0 0 0-199.466667 110.933333 360.746667 360.746667 0 0 0 187.776 59.562667L512 874.666667a360.746667 360.746667 0 0 0 199.466667-59.733334A234.538667 234.538667 0 0 0 512 704z m0-554.666667a362.666667 362.666667 0 0 0-249.813333 625.578667A298.410667 298.410667 0 0 1 512 640a298.410667 298.410667 0 0 1 249.813333 134.912A362.666667 362.666667 0 0 0 512 149.333333zM512 256a170.666667 170.666667 0 1 1 0 341.333333 170.666667 170.666667 0 0 1 0-341.333333z m0 64a106.666667 106.666667 0 1 0 0 213.333333 106.666667 106.666667 0 0 0 0-213.333333z" fill="#000000" /></svg>