<?xml version="1.0" standalone="no"?><!DOCTYPE svg PUBLIC "-//W3C//DTD SVG 1.1//EN" "http://www.w3.org/Graphics/SVG/1.1/DTD/svg11.dtd"><svg class="icon" width="99px" height="99.00px" viewBox="0 0 1024 1024" version="1.1" xmlns="http://www.w3.org/2000/svg"><path d="M880.64 894.793143c13.110857 8.850286 30.445714 5.302857 40.722286-9.197714C986.112 792.850286 1024 673.572571 1024 547.218286c0-126.354286-38.217143-246.016-102.656-338.742857-10.24-14.518857-27.611429-18.048-40.704-8.850286-13.44 9.197714-15.561143 26.898286-5.302857 41.764571 56.978286 83.894857 92.379429 191.488 92.379428 305.810286 0 114.340571-34.322286 223.36-92.379428 305.828571-10.258286 14.518857-8.137143 32.201143 5.302857 41.764572zM395.739429 870.4c24.082286 0 41.417143-17.700571 41.417142-41.417143V264.393143c0-23.716571-17.334857-43.52-42.112-43.52-17.353143 0-29.037714 7.771429-47.798857 25.472l-156.086857 147.602286a13.860571 13.860571 0 0 1-9.197714 3.181714H76.8c-49.901714 0-76.8 27.245714-76.8 80.347428v137.325715c0 53.101714 26.898286 80.365714 76.8 80.365714h105.142857c3.529143 0 6.710857 1.060571 9.197714 3.181714l156.086858 149.028572c17.005714 15.908571 31.158857 23.003429 48.493714 23.003428z m342.272-72.228571c13.805714 9.216 30.811429 5.668571 40.722285-8.484572 46.72-65.133714 73.618286-151.844571 73.618286-242.468571 0-90.953143-26.550857-177.682286-73.618286-242.797715-10.276571-13.805714-26.916571-17.353143-40.722285-8.155428-13.44 9.216-15.561143 26.550857-4.937143 41.764571 38.582857 56.649143 62.281143 130.980571 62.281143 209.188572 0 78.226286-23.003429 153.270857-62.646858 209.188571-9.910857 15.232-8.137143 32.566857 5.302858 41.782857z m-141.220572-95.561143c12.032 8.502857 29.385143 5.668571 39.643429-8.137143 27.611429-37.156571 44.251429-91.666286 44.251428-147.254857 0-55.552-17.005714-109.714286-44.251428-147.584-10.258286-13.805714-27.245714-16.64-39.643429-8.155429-15.579429 10.276571-17.353143 28.324571-6.034286 43.885714 20.553143 27.611429 32.932571 69.741714 32.932572 111.853715 0 42.130286-13.092571 84.242286-33.28 112.219428-10.605714 15.213714-8.832 32.548571 6.381714 43.172572z" /></svg>